<?xml version="1.0" encoding="iso-8859-1"?>
<!-- Generator: Adobe Illustrator 19.0.0, SVG Export Plug-In . SVG Version: 6.00 Build 0)  -->
<svg version="1.1" id="Layer_1" xmlns="http://www.w3.org/2000/svg" xmlns:xlink="http://www.w3.org/1999/xlink" x="0px" y="0px"
	 viewBox="0 0 512 512" style="enable-background:new 0 0 512 512;" xml:space="preserve">
<g>
	<g>
		<path d="M256,0c-29.867,0-53.333,23.467-53.333,53.333C202.667,76.8,217.6,96,236.8,102.4c4.267,2.133,6.4,2.133,8.533,2.133
			c4.267,0,6.4,0,10.667,0s6.4,0,10.667,0c2.133,0,6.4-2.133,8.533-2.133c0,0,0,0,2.133,0c19.2-8.533,34.133-27.733,34.133-49.067
			C309.333,23.467,285.867,0,256,0z"/>
	</g>
</g>
<g>
	<g>
		<path d="M106.667,320c-29.867,0-53.333,23.467-53.333,53.333c0,23.467,14.933,42.667,34.133,49.067
			c4.267,2.133,6.4,2.133,8.533,2.133c4.267,0,6.4,0,10.667,0s6.4,0,10.667,0c2.133,0,6.4-2.133,8.533-2.133c0,0,0,0,2.133,0
			c19.2-8.533,34.133-27.733,34.133-49.067C160,343.467,136.533,320,106.667,320z"/>
	</g>
</g>
<g>
	<g>
		<path d="M311.467,102.4C296.533,117.333,277.333,128,256,128s-40.533-10.667-55.467-25.6C177.067,119.467,160,149.333,160,181.333
			c0,6.4,4.267,10.667,10.667,10.667h170.667c6.4,0,10.667-4.267,10.667-10.667C352,149.333,334.933,119.467,311.467,102.4z"/>
	</g>
</g>
<g>
	<g>
		<path d="M409.6,320c-29.867,0-57.6,23.467-57.6,53.333C352,396.8,366.933,416,386.133,422.4c0,0,0,0,2.133,0
			c2.133,0,4.267,2.133,8.533,2.133s6.4,0,10.667,0c4.267,0,6.4,0,10.667,0c2.133,0,6.4-2.133,8.533-2.133c0,0,0,0,2.133,0
			c19.2-8.533,34.133-27.733,34.133-49.067C462.933,343.467,439.467,320,409.6,320z"/>
	</g>
</g>
<g>
	<g>
		<path d="M460.8,422.4c-14.933,14.933-34.133,25.6-55.467,25.6c-21.333,0-40.533-10.667-55.467-25.6
			c-25.6,17.067-40.533,46.933-40.533,78.933c0,6.4,4.267,10.667,10.667,10.667h170.667c6.4,0,10.667-4.267,10.667-10.667
			C501.333,469.333,484.267,439.467,460.8,422.4z"/>
	</g>
</g>
<g>
	<g>
		<path d="M162.133,422.4C147.2,437.333,128,448,106.667,448c-21.333,0-40.533-10.667-55.467-25.6
			c-25.6,17.067-40.533,46.933-40.533,78.933c0,6.4,4.267,10.667,10.667,10.667H192c6.4,0,10.667-4.267,10.667-10.667
			C202.667,469.333,185.6,439.467,162.133,422.4z"/>
	</g>
</g>
<g>
	<g>
		<path d="M149.333,106.667h-42.667c-6.4,0-10.667,4.267-10.667,10.667V288c0,6.4,4.267,10.667,10.667,10.667
			c6.4,0,10.667-4.267,10.667-10.667V128h32c6.4,0,10.667-4.267,10.667-10.667C160,110.933,155.733,106.667,149.333,106.667z"/>
	</g>
</g>
<g>
	<g>
		<path d="M405.333,106.667h-42.667c-6.4,0-10.667,4.267-10.667,10.667c0,6.4,4.267,10.667,10.667,10.667h32v160
			c0,6.4,4.267,10.667,10.667,10.667c6.4,0,10.667-4.267,10.667-10.667V117.333C416,110.933,411.733,106.667,405.333,106.667z"/>
	</g>
</g>
<g>
</g>
<g>
</g>
<g>
</g>
<g>
</g>
<g>
</g>
<g>
</g>
<g>
</g>
<g>
</g>
<g>
</g>
<g>
</g>
<g>
</g>
<g>
</g>
<g>
</g>
<g>
</g>
<g>
</g>
</svg>
